<svg xmlns="http://www.w3.org/2000/svg" viewBox="0 0 1920 1080"><linearGradient id="a" gradientUnits="userSpaceOnUse" x1="702.698" y1="368.187" x2="497.737" y2="515.106"><stop offset="0" stop-color="#51c2e7"/><stop offset="1" stop-color="#5189dc"/></linearGradient><path d="m470 479.8 77.7-44.9 79.1 43-79.1 45.6z" style="fill:url(#a)"/><linearGradient id="b" gradientUnits="userSpaceOnUse" x1="958.759" y1="547.816" x2="659.479" y2="714.687"><stop offset="0" stop-color="#51c2e7"/><stop offset="1" stop-color="#5189dc"/></linearGradient><path d="m821.8 581.1 79-45.6 76.5 45.1-76.5 44.2z" style="fill:url(#b)"/><linearGradient id="c" gradientUnits="userSpaceOnUse" x1="655.239" y1="301.978" x2="450.278" y2="448.897"><stop offset="0" stop-color="#51c2e7"/><stop offset="1" stop-color="#5189dc"/></linearGradient><path d="m392.1 434.7 77.4-44.9 78.2 45.1-77.7 44.9z" style="fill:url(#c)"/><path d="m199.3 540 77.3-43.9 78 43.2-77.5 45.1zm347.4-285.5 78.2-45.1 78.2 45.1-78.1 45.3zm119.5 416L744 626l77.8 44.4-77.8 44.9z" style="fill:#333"/></svg>